<svg xmlns="http://www.w3.org/2000/svg" viewBox="0 0 880 1096.4" style="enable-background:new 0 0 880 1096.4" xml:space="preserve"><path d="m804.8 271 20.2-75.1-75.3-20.1 20.2-75.1-75.2-20.1-75.3-20.1L544 40.4l-75.1-20.1-75.3-20-20.2 75.1-75.2-20.1-20.2 75.1h-.1l-75.3-20.1-20.2 75-20.2 75.1-20.2 75-20.2 75.1-20.2 75.1-20.2 75-20.2 75.1-20.2 75-20.2 75.1L.9 860.6l75.3 20.1-20.2 75 75.2 20.1 75.3 20.1 75.1 20.1 75.3 20.1 75.3 20.1 75.2 20.1 75.3 20.1 20.2-75 75.2 20.1 20.2-75.1 20.2-75.1 20.1-74.9 20.2-75.1 20.2-75 20.2-75.1 20.2-75.1 20.2-75 20.2-75.1 20.2-75-75.2-20zM533.1 680.9l-75.3-20.1-20.2 75-20.2 75-20.2 75.1-75.2-20.1 20.2-75.1 20.2-75 20.2-75-75.2-20.1 20.2-75 75.1 20.1 75.3 20.1 75.3 20.1-20.2 75zm176-355.1L689 400.9l-20.2 75-75.2-20.1-75.3-20.1-75.3-20.1-75.1-20.1-75.3-20.1 20.2-75 20.2-75.1 20.2-75h.1l75.3 20.1 75.2 20.1 75.2 20.1 75.3 20.1 75 20-20.2 75.1z" style="fill:#fa994b"/></svg>