<svg width="580" height="777" fill="none" xmlns="http://www.w3.org/2000/svg"><g clip-path="url(#a)" fill="#E5E5E5"><path d="m529.785 213.203 13.464-50.258-50.081-13.422 13.463-50.256-50.082-13.422 6.732-25.13L237.787.283l-6.732 25.129-50.082-13.422-13.464 50.256-50.081-13.422-13.464 50.258-50.081-13.422L-.005 286.815l75.122 20.133-13.464 50.257 100.163 26.844 13.464-50.257-50.082-13.422 47.157-176.028 25.041 6.711 6.732-25.128 200.454 53.723-6.732 25.128 25.04 6.711-47.156 176.028-25.041-6.711-13.463 50.256-50.082-13.422-13.464 50.257-75.122-20.133-33.659 125.642 100.164 26.844 26.927-100.513 75.122 20.133 13.464-50.258 50.081 13.422 13.463-50.256 50.082 13.422 13.464-50.257 25.168 6.745 47.157-176.027-50.21-13.456ZM251.584 650.639l-100.163-26.844-6.732 25.129-25.168-6.745-20.195 75.385 25.168 6.745-6.732 25.129 100.163 26.844 6.732-25.129 25.041 6.712 20.195-75.386-25.041-6.711 6.732-25.129Z"/></g><defs><clipPath id="a"><path fill="#fff" d="M0 0h580v777H0z"/></clipPath></defs></svg>