<svg width="2008" height="902" fill="none" xmlns="http://www.w3.org/2000/svg"><g opacity=".5" fill="#272727" clip-path="url(#a)"><path d="m1147.42 323.55-42.34-86.785 86.71-42.299-42.3-86.719 173.48-84.63 169.28 347.008-173.48 84.631 42.3 86.718-239.72 116.946-42.31-86.718-86.774 42.332-42.337-86.786 173.481-84.631 42.34 86.786 66.31-32.348-42.34-86.786 86.71-42.299-42.3-86.718-86.71 42.298Z"/><path d="m1147.42 323.55 42.3 86.719-66.31 32.348-42.3-86.718 66.31-32.349ZM818.781 698.665l42.303 86.718 173.486-84.631-42.304-86.718-173.485 84.631ZM818.781 698.665l-42.304-86.718-86.708 42.299 42.303 86.718 86.709-42.299ZM1149.49 107.747l-153.02 74.647-42.304-86.717 26.402-12.88-.034-.068 126.616-61.767 42.34 86.785ZM1833.97 203.425l173.49-84.631-42.34-86.786-173.49 84.631 42.34 86.786ZM1641.34 82.603l-86.71 42.299-42.3-86.717 86.7-42.3 42.31 86.718Z"/><path fill-rule="evenodd" clip-rule="evenodd" d="M994.402 398.197 647.432 567.46l-84.641-173.505-173.484 84.631-42.304-86.717 520.455-253.893 126.944 260.221Zm-129.114-44.453-42.303-86.719-86.709 42.299 42.304 86.719 86.708-42.299Z"/><path d="m647.432 567.46 42.304 86.718-86.709 42.299 42.337 86.786-86.777 42.332 42.304 86.718-86.708 42.299-42.304-86.718-86.777 42.332 42.304 86.718-173.485 84.636-42.304-86.723 86.777-42.332-42.337-86.786-86.776 42.332-42.304-86.718 86.777-42.332-42.337-86.786-86.776 42.332L0 561.063l86.776-42.332 42.337 86.785 173.485-84.631 42.304 86.719-86.777 42.332 84.641 173.504 173.485-84.631-42.304-86.718 173.485-84.631Z"/></g><defs><clipPath id="a"><path fill="#fff" d="M0 0h2008v902H0z"/></clipPath></defs></svg>