<svg width="358" height="371" fill="none" xmlns="http://www.w3.org/2000/svg"><path d="M12.78 51.154H0v115.163h12.78V51.154ZM345.219 166.317H358V51.154h-12.781v115.163ZM332.438 191.894h12.781v-25.577h-12.781v25.577ZM319.657 217.472h12.781v-25.578h-12.781v25.578ZM345.219 51.154V38.366h-25.562v12.788h25.562ZM306.876 243.049h12.781v-25.577h-12.781v25.577Z" fill="#DEDEDE"/><path d="M294.095 268.691h12.781v-25.642h-12.781v25.642ZM281.314 63.943V51.154h-38.409V38.366h-127.81v12.788H76.686v12.789H38.343v102.374h12.781V140.74h89.533v-12.789h12.781v-12.789h12.781V51.154h25.562v64.008h12.781v12.789h12.781v12.789h89.533v25.577h12.781V63.943h-38.343Zm12.781 64.008h-12.781v-51.22h12.781v51.22ZM281.314 294.268h12.781v-25.577h-12.781v25.577Z" fill="#DEDEDE"/><path d="M217.343 166.317v12.789h-12.781v12.788h-12.781v127.951h-25.562V191.894h-12.781v-12.788h-12.781v-12.789H51.124v25.577h12.781v25.578h12.781v25.577h12.781v25.642h12.847v25.577h12.781v12.789h12.781v12.788h12.781v12.789h76.686v-12.789h12.781v-12.788h12.781v-12.789h12.847v-25.577h12.781v-25.642h12.781v-25.577h12.781v-25.578h12.781v-25.577h-89.533Zm51.19 51.155h-12.781v38.365h-12.847v25.643h-12.781v-25.643h12.781v-38.365h12.847v-25.578h12.781v25.578ZM319.657 38.366V25.577h-38.343v12.789h38.343ZM281.314 294.268h-12.781v12.789h12.781v-12.789ZM268.533 307.057h-12.781v12.788h12.781v-12.788ZM255.752 319.845h-12.847v12.789h12.847v-12.789Z" fill="#DEDEDE"/><path d="M281.314 25.577V12.79h-38.409v12.788h38.409ZM242.905 332.634h-12.781v12.789h12.781v-12.789ZM204.562 345.423v12.788h25.562v-12.788h-25.562ZM153.438 358.211V371h51.124v-12.789h-51.124ZM166.219 140.74v25.577h25.562V140.74h-25.562ZM127.876 345.423v12.788h25.562v-12.788h-25.562ZM242.905 12.789V0h-127.81v12.789h127.81ZM127.876 332.634h-12.781v12.789h12.781v-12.789ZM115.095 319.845h-12.781v12.789h12.781v-12.789ZM102.314 307.057H89.467v12.788h12.847v-12.788ZM115.095 25.577V12.79H76.686v12.788h38.409ZM89.467 294.268h-12.78v12.789h12.78v-12.789ZM76.686 268.691h-12.78v25.577h12.78v-25.577ZM63.905 243.049H51.124v25.642h12.781v-25.642ZM76.686 38.366V25.577H38.343v12.789h38.343ZM51.124 217.472h-12.78v25.577h12.78v-25.577ZM38.343 191.894H25.562v25.578h12.781v-25.578ZM38.343 51.154V38.366H12.781v12.788h25.562ZM25.562 166.317H12.781v25.577h12.781v-25.577Z" fill="#DEDEDE"/></svg>