<svg width="1412" height="933" fill="none" xmlns="http://www.w3.org/2000/svg"><g clip-path="url(#a)"><path d="M718.542 794.903h98.255v-41.381l15.046-15.053h22.347l114.489-114.5v-40.362l36.671-36.67h39.57l15.29-15.29V505.38l49.25-49.26h48.3l9.49-9.483v-21.348l25.5-25.499h25.59l71.57-71.578h45.61l22.43-22.427h79.78l-6.94-60.992h-85.05l-46 46h-68.22l-42.83 42.837h-34.41l-36.77 36.761v29.314l-44.21 44.22h-28.96L918.013 570.26l-24.169.299-23.736 23.743v52.07l-49.259 49.26h-36.485l-14.266 14.267v33.44l-16.052 16.052h-16.484l-29.8 29.801v5.711h10.78Z" fill="#232323"/><path d="M936.277 930.233h-96.414l191.667-191.672h96.41L936.277 930.233Z" fill="#363636"/><path d="M1099.31 667.989h-83.94l344.5-344.518h83.94l-344.5 344.518ZM729.109 998.691h-76.072L965.279 686.43h76.081L729.109 998.691Z" fill="#232323"/><path d="M1225.2 439.628h-27.24l5.24-5.241h27.24l-5.24 5.241ZM1235.46 429.366h-27.24l5.24-5.247h27.25l-5.25 5.247ZM1245.73 419.097h-27.25l5.25-5.241h27.24l-5.24 5.241ZM1255.99 408.833h-27.24l5.24-5.241h27.24l-5.24 5.241ZM1266.25 398.571h-27.24l5.24-5.241h27.24l-5.24 5.241ZM1276.51 388.308h-27.24l5.25-5.247h27.24l-5.25 5.247Z" fill="#303030"/><path d="M1060.24 436.204h-16.49l3.17-3.175h16.5l-3.18 3.175ZM1066.46 429.988h-16.5l3.18-3.169h16.49l-3.17 3.169ZM1072.67 423.777h-16.49l3.17-3.175h16.49l-3.17 3.175ZM1078.88 417.561h-16.49l3.17-3.175h16.5l-3.18 3.175ZM1085.1 411.345h-16.5l3.18-3.176h16.49l-3.17 3.176ZM1091.32 405.129h-16.5l3.17-3.175h16.5l-3.17 3.175ZM734.04 700.684h-16.491l3.175-3.175h16.491l-3.175 3.175ZM740.256 694.468h-16.497l3.175-3.176h16.497l-3.175 3.176ZM746.471 688.252h-16.496l3.175-3.175h16.496l-3.175 3.175ZM752.687 682.036h-16.496l3.175-3.175h16.496l-3.175 3.175ZM758.903 675.819h-16.496l3.175-3.175h16.49l-3.169 3.175ZM765.113 669.603h-16.49l3.175-3.169h16.49l-3.175 3.169Z" fill="#363636"/><path d="M734.04 700.684h-16.491l3.175-3.175h16.491l-3.175 3.175ZM740.256 694.468h-16.497l3.175-3.176h16.497l-3.175 3.176ZM746.471 688.252h-16.496l3.175-3.175h16.496l-3.175 3.175ZM752.687 682.036h-16.496l3.175-3.175h16.496l-3.175 3.175ZM758.903 675.819h-16.496l3.175-3.175h16.49l-3.169 3.175ZM765.113 669.603h-16.49l3.175-3.169h16.49l-3.175 3.169ZM875.611 758.66h-11.677l287.636-287.658h11.69L875.611 758.66Z" fill="#363636"/><path d="M1067.23 681.085h-6.62l163.08-163.084h6.63l-163.09 163.084Z" fill="#303030"/><path d="M1251.57 450.001h-4.78l117.86-117.864h4.78l-117.86 117.864Z" fill="#363636"/><path d="M534.52 919.86h-47.101l193.31-193.318h47.101L534.52 919.86Z" fill="#303030"/><path d="M915.216 412.472h-9.196l10.518-10.518h9.202l-10.524 10.518ZM929.653 412.472h-9.202l10.518-10.518h9.202l-10.518 10.518ZM944.084 412.472h-9.202l10.518-10.518h9.202l-10.518 10.518Z" fill="#363636"/><path d="M915.216 412.472h-9.196l10.518-10.518h9.202l-10.524 10.518ZM929.653 412.472h-9.202l10.518-10.518h9.202l-10.518 10.518ZM944.084 412.472h-9.202l10.518-10.518h9.202l-10.518 10.518ZM1190.37 245.489h-6.46l7.4-7.393h6.46l-7.4 7.393ZM1200.52 245.489h-6.46l7.39-7.393h6.47l-7.4 7.393ZM1210.67 245.489h-6.47l7.39-7.393h6.47l-7.39 7.393Z" fill="#363636"/><path d="M1190.37 245.489h-6.46l7.4-7.393h6.46l-7.4 7.393ZM1200.52 245.489h-6.46l7.39-7.393h6.47l-7.4 7.393ZM1210.67 245.489h-6.47l7.39-7.393h6.47l-7.39 7.393Z" fill="#363636"/><path d="M970.739 707.754h-9.196l10.518-10.519h9.202l-10.524 10.519ZM985.175 707.754h-9.202l10.519-10.519h9.202l-10.519 10.519ZM999.606 707.754h-9.202l10.516-10.519h9.2l-10.514 10.519Z" fill="#303030"/><path d="M1037.66 348.677h-8.56l5.24-5.241h8.57l-5.25 5.241ZM1047.93 338.414h-8.57l5.24-5.241h8.57l-5.24 5.241ZM1058.19 328.151h-8.56l5.24-5.247h8.57l-5.25 5.247ZM1068.46 317.882h-8.57l5.24-5.241h8.57l-5.24 5.241ZM1078.72 307.62h-8.57l5.24-5.242h8.58l-5.25 5.242ZM1088.99 297.357h-8.58l5.25-5.241h8.57l-5.24 5.241Z" fill="#363636"/><path d="M1037.66 348.677h-8.56l5.24-5.241h8.57l-5.25 5.241ZM1047.93 338.414h-8.57l5.24-5.241h8.57l-5.24 5.241ZM1058.19 328.151h-8.56l5.24-5.247h8.57l-5.25 5.247ZM1068.46 317.882h-8.57l5.24-5.241h8.57l-5.24 5.241ZM1078.72 307.62h-8.57l5.24-5.242h8.58l-5.25 5.242ZM1088.99 297.357h-8.58l5.25-5.241h8.57l-5.24 5.241ZM1049.71 610.562h-8.57l5.24-5.241h8.57l-5.24 5.241ZM1059.97 600.299h-8.57l5.24-5.241h8.57l-5.24 5.241ZM1070.23 590.036h-8.57l5.24-5.247h8.57l-5.24 5.247ZM1080.49 579.767h-8.57l5.25-5.241h8.57l-5.25 5.241ZM1090.76 569.504h-8.57l5.24-5.241h8.57l-5.24 5.241ZM1101.02 559.242h-8.56l5.24-5.242h8.56l-5.24 5.242ZM1304.37 273.078h-6.22l3.81-3.803h6.22l-3.81 3.803ZM1311.82 265.63h-6.22l3.8-3.809h6.23l-3.81 3.809ZM1319.27 258.176h-6.22l3.81-3.802h6.22l-3.81 3.802ZM1326.72 250.729h-6.22l3.81-3.809h6.22l-3.81 3.809ZM1334.17 243.276h-6.22l3.81-3.803h6.22l-3.81 3.803ZM1341.62 235.829h-6.22l3.81-3.809h6.22l-3.81 3.809Z" fill="#363636"/><path d="M1304.37 273.078h-6.22l3.81-3.803h6.22l-3.81 3.803ZM1311.82 265.63h-6.22l3.8-3.809h6.23l-3.81 3.809ZM1319.27 258.176h-6.22l3.81-3.802h6.22l-3.81 3.802ZM1326.72 250.729h-6.22l3.81-3.809h6.22l-3.81 3.809ZM1334.17 243.276h-6.22l3.81-3.803h6.22l-3.81 3.803ZM1341.62 235.829h-6.22l3.81-3.809h6.22l-3.81 3.809Z" fill="#363636"/><path d="m685.196 717.401 64.664-64.666h60.422l34.383-34.391v-71.596l57.881-57.883h30.343l87.641-87.649h47.17l127.77-127.779h71.7l51.8-51.808h122.71V117.904h-85.39l-136 135.994h-74.38l-111.49 111.496h-16.24l-67.052 67.049h-87.005l-65.681 65.685.024 68.543-27.789 27.784h-19.141l-68.254 68.256h-50.05l-63.823 63.832v12.018l-36.028 36.029v16.936h51.787v-14.017l49.977-49.985h17.545l7.222-7.216h17.429l2.858-2.858 4.997-.049Z" fill="#232323"/><path d="M572.492 791.527v-15.474l52.44-52.441v-9.093l16.423-16.424h39.099l82.807-82.804h14.357l45.876-45.878V522.17L882.661 463h26.826l18.916-18.91h36.607l54.84-54.843h14.57l126.72-126.731h74.24l108.14-108.138h90.46" stroke="#363636" stroke-width="3" stroke-miterlimit="10"/><path d="M913.747 550.216h-28.55l117.193-117.2h28.56l-117.203 117.2Z" fill="#303030"/><path d="M1291.43 495.726h-59.19l242.93-242.943h59.2l-242.94 242.943Z" fill="#363636"/><path d="M758.385 797.651v-16.765l55.999-56.001h27.289l107.261-107.266v-58.426l93.226-93.231h19.35l53.09-53.087h32.45l111.43-111.435h82.9l26.27-26.273h70.08" stroke="#303030" stroke-width="3" stroke-miterlimit="10"/><path d="M679.413 650.87h-8.569l5.247-5.247h8.569l-5.247 5.247ZM689.681 640.601h-8.568l5.241-5.241h8.568l-5.241 5.241ZM699.943 630.338h-8.568l5.241-5.241h8.568l-5.241 5.241ZM710.206 620.075h-8.568l5.241-5.247h8.574l-5.247 5.247ZM720.474 609.812H711.9l5.247-5.247h8.568l-5.241 5.247ZM730.737 599.543h-8.568l5.24-5.241h8.569l-5.241 5.241Z" fill="#363636"/><path d="M679.413 650.87h-8.569l5.247-5.247h8.569l-5.247 5.247ZM689.681 640.601h-8.568l5.241-5.241h8.568l-5.241 5.241ZM699.943 630.338h-8.568l5.241-5.241h8.568l-5.241 5.241ZM710.206 620.075h-8.568l5.241-5.247h8.574l-5.247 5.247ZM720.474 609.812H711.9l5.247-5.247h8.568l-5.241 5.247ZM730.737 599.543h-8.568l5.24-5.241h8.569l-5.241 5.241Z" fill="#363636"/><path d="m1006.93 791.246 68.88-68.884h21.35l74.9-74.899h17.43l14.04-14.041v-47.908l82.24-82.249h19.6l49.04-49.047h79.57V572.74h-80.6l-41.56 41.558v32.915l-17.95 17.942h-65.76l-51.6 51.606h-16.89l-89.76 89.757h-62.93v-15.272Z" fill="#232323"/><path d="m1063.46 791.246 101.76-101.775h18.29l52.4-52.399h21.14l82.12-82.133h102.51" stroke="#363636" stroke-width="3" stroke-miterlimit="10"/><path d="M1238.68 588.062h-16.14l66.24-66.245h16.14l-66.24 66.245Z" fill="#303030"/><path d="M1284.27 625.962h-6.22l3.8-3.809h6.22l-3.8 3.809ZM1291.72 618.508h-6.22l3.81-3.802h6.21l-3.8 3.802ZM1299.17 611.061h-6.22l3.8-3.809h6.22l-3.8 3.809ZM1306.62 603.608h-6.22l3.81-3.803h6.21l-3.8 3.803ZM1314.07 596.155h-6.22l3.8-3.803h6.22l-3.8 3.803ZM1321.52 588.708h-6.22l3.81-3.803h6.21l-3.8 3.803Z" fill="#363636"/></g><path d="M1273.17 780.902v24.539m13.07-12.275h-26.14m48.28-45.328v24.55m13.08-12.275h-26.15m48.28-45.328v24.539m13.08-12.264h-26.14M483.132 736.177v24.55m13.075-12.275h-26.151M13.075 104.204v24.55m13.076-12.275H0M1199.73 66.117v24.539m13.06-12.275h-26.13m48.28-45.328v24.55m13.07-12.275h-26.15M1270.15 0v24.539m13.07-12.264h-26.14" stroke="#393939" stroke-width="5" stroke-miterlimit="10"/><defs><clipPath id="a"><path fill="#fff" transform="translate(487.419 105.857)" d="M0 0h924.029v826.861H0z"/></clipPath></defs></svg>