<svg width="536" height="150" fill="none" xmlns="http://www.w3.org/2000/svg"><path opacity=".1" d="m51.816 149.022-36-26.122 31.422-36.988L0 73.164l13.734-42.422 45.157 18.599L55.77.022h44.533l-3.122 49.319 44.949-18.599 13.734 42.422-47.029 12.748 31.214 36.988-36.001 26.122-26.012-40.959-26.22 40.959ZM241.884 149.022 205.883 122.9l31.423-36.988-47.238-12.748 13.734-42.422 45.157 18.599L245.838.022h44.532l-3.121 49.319 44.949-18.599 13.734 42.422-47.03 12.748 31.215 36.988-36.001 26.122-26.012-40.959-26.22 40.959ZM431.952 149.022 395.951 122.9l31.422-36.988-47.238-12.748 13.735-42.422 45.157 18.599L435.905.022h44.533l-3.121 49.319 44.949-18.599L536 73.164l-47.03 12.748 31.215 36.988-36.001 26.122-26.012-40.959-26.22 40.959Z" fill="#000"/></svg>