<svg width="90" height="79" fill="none" xmlns="http://www.w3.org/2000/svg"><g clip-path="url(#a)" fill="#fff"><path d="M80.43 52.369h2.952v5.706h3.001v2.889h2.903v11.498h-2.822v2.84H83.46v2.858H5.897v-2.746H2.894v-2.889H0V61.027h2.849v-2.84h3.004v-5.758h2.953v-5.71h2.95v-2.888h3.007v-5.707h3.004v-5.76h2.95v-2.89h3.007V23.77h3.004v-5.761h2.95v-2.89h3.007V9.414h2.953v-5.71h3.002V.84h11.956v2.752h2.953v5.706h3.004v5.76h2.95v2.89h3.007v5.706h3.004v5.76h2.95v2.89h3.007v5.706h3.004v5.76h2.95v2.838h3.004v5.76ZM14.792 69.516h59.718V66.73h2.834v-5.758h-2.903v-5.76h-3.004v-5.707h-3.007v-2.889h-2.95v-5.709h-2.953v-5.76h-3.004V29.44h-3.007v-2.889h-2.95v-5.76h-3.004v-5.707h-3.007v-2.757h-5.93v2.815h-2.95v5.76H35.67v5.707h-3.004v5.758h-2.953v2.889H26.71v5.706h-3.004v5.76h-2.953v5.758h-3.007v2.838h-3.004v5.755h-2.795v5.706h2.846v2.737Z"/><path d="M41.736 46.662h-2.977V32.398h2.86v-2.866h5.937v2.754h2.977v14.316h-2.864v2.866h-5.936v-2.803l.003-.003ZM47.606 52.486v2.746h2.927v5.76h-2.855v2.815h-5.99V61.06h-2.926v-5.76h2.855v-2.815h5.99Z"/></g><defs><clipPath id="a"><path fill="#fff" transform="translate(0 .84)" d="M0 0h89.286v77.32H0z"/></clipPath></defs></svg>