<svg width="19" height="19" fill="none" xmlns="http://www.w3.org/2000/svg"><path d="M2.375 7.916c0-2.985 0-4.478.928-5.405.927-.928 2.42-.928 5.405-.928h1.584c2.985 0 4.478 0 5.405.928.928.927.928 2.42.928 5.405v3.167c0 2.985 0 4.479-.928 5.405-.927.928-2.42.928-5.405.928H8.708c-2.985 0-4.478 0-5.405-.928-.928-.926-.928-2.42-.928-5.405V7.916Z" stroke="#fff" stroke-width="1.5"/><path d="M6.333 9.5h6.334M6.334 6.333h6.333m-6.333 6.333h3.958" stroke="#fff" stroke-width="1.5" stroke-linecap="round"/></svg>