<svg width="141" height="116" fill="none" xmlns="http://www.w3.org/2000/svg"><g clip-path="url(#a)" fill="#FF5D01"><path d="M135.909 101.561c-.044-.962-.126-1.925-.126-2.888-.01-20.552-.005-41.1-.005-61.652v-3.096H5.203v67.477l.063-.073H.5V9.628h4.606V4.756H9.89V0h121.034v4.635h4.785v4.872h4.79v91.996h-4.664l.073.063v-.005ZM34.226 14.403h-4.702v4.77h4.702v4.698h4.756v-4.698h4.703v-4.77h-4.703V9.705h-4.756v4.698Zm-19.352 0h-4.703v4.77h4.703v4.698h4.756v-4.698h4.703v-4.77H19.63V9.705h-4.756v4.698Zm43.465.005V9.705h-4.77v4.703h-4.698v4.756h4.698v4.702h4.77v-4.702h4.698v-4.756H58.34Z"/><path d="M97.044 86.907v4.79h-4.838v4.954l.068-.063h-4.906l.068.068v-4.694H82.53v4.694l.068-.068h-4.693v4.906h4.693l-.068-.063v4.818h-4.712v9.546H63.173v-9.521c1.635-.005 3.27-.015 4.906-.02v4.713h4.63v-4.645h-4.703v-4.688h-4.76v4.707H58.46v-4.92h-4.949l.063.068v-4.906l-.068.068H58.2v-4.906h-4.693l.068.068v-9.744h-4.906l.068.067v-4.905l-.068.067h4.906v-9.744l-.068.068h4.906v-4.906l-.068.068h9.744v-4.906l-.067.068h4.905l-.067-.068v4.906h9.744l-.068-.068v4.693h4.906v-4.693l-.068.068h4.906l-.068-.063v4.785h4.838v4.954l.068-.063h-4.693v4.906h4.693l-.068-.068v4.906l.068-.068h-4.693v4.906h4.693l-.068-.063-.005-.01ZM63.39 72.542v14.2h14.2v-14.2h-14.2Z"/><path d="M58.407 57.941v-4.804h4.77v-9.628H77.59v9.454h4.935v4.978l.068-.063h-9.744l.068.068V48.42H68.01v9.526l.068-.068h-9.744l.067.063h.005ZM48.731 91.745h-4.804v-4.77h-9.628V72.562h9.454v-4.935h4.978l-.063-.068v9.744l.068-.068H39.21v4.906h9.526l-.068-.068v9.744l.063-.067v-.005ZM130.911 106.264v4.712H97.233v-4.649h33.741l-.068-.068.005.005ZM43.68 106.332v4.649H10.026v-4.717l-.068.068H43.68ZM97.044 72.455h9.551v14.452h-9.55l.067.063v-4.906l-.068.068h4.693v-4.906h-4.693l.068.067v-4.905l-.068.063v.004ZM48.736 57.941V53.23H53.5v4.712l.068-.063h-4.906l.068.063h.005ZM87.436 57.941V53.23H92.2v4.712l.068-.063h-4.906l.068.063h.005ZM48.731 62.716h-4.712v-4.77h4.712l-.068-.063v4.906l.063-.068.005-.005Z"/><path d="M82.53 57.941h4.91l-.067-.063v4.906l.068-.068h-4.906l.068.068v-4.906l-.068.063h-.005ZM92.206 57.941h4.712v4.775h-4.712l.068.063v-4.906l-.068.063v.005ZM48.731 67.622v-4.91l-.063.067h4.906l-.068-.068v4.906l.068-.068h-4.906l.063.068v.005Z"/><path d="M53.501 57.941h4.911l-.068-.063v4.906l.068-.068h-4.906l.068.068v-4.906l-.068.063h-.005ZM48.736 96.646V91.74l-.063.068h4.906l-.068-.068v4.906l.068-.068h-4.906l.068.063-.005.005ZM87.436 101.421H82.53l.068.063v-4.906l-.068.068h4.906l-.068-.068v4.906l.063-.068.005.005ZM92.206 96.646h4.712v4.77h-4.712l.063.068v-4.906l-.068.063.005.005ZM10.031 106.264h-4.77v-4.93l-.063.072h4.765v4.931l.068-.068v-.005ZM48.731 101.421h-4.712v-4.77h4.712l-.068-.063v4.906l.063-.068.005-.005Z"/><path d="M92.211 101.421v4.712h-4.775v-4.712l-.063.068h4.906l-.063-.068h-.005ZM130.974 106.332v-4.776h4.93l-.073-.062v4.765h-4.93l.073.073ZM53.506 101.421v4.712h-4.775v-4.712l-.063.068h4.906l-.063-.068h-.005ZM53.501 14.335h4.906v4.906h-4.906v-4.906ZM19.702 14.335v4.906h-4.905v-4.906h4.905ZM39.055 14.335v4.906h-4.906v-4.906h4.906Z"/></g><defs><clipPath id="a"><path fill="#fff" transform="translate(.5)" d="M0 0h140v115.795H0z"/></clipPath></defs></svg>