<svg width="226" height="315" fill="none" xmlns="http://www.w3.org/2000/svg"><path d="M10.853 43.433H0v97.78h10.853v-97.78ZM293.147 141.213H304v-97.78h-10.853v97.78ZM282.294 162.929h10.853v-21.716h-10.853v21.716ZM271.44 184.646h10.854v-21.717H271.44v21.717ZM293.147 43.433V32.575H271.44v10.858h21.707ZM260.587 206.362h10.853v-21.716h-10.853v21.716ZM249.734 228.134h10.853v-21.772h-10.853v21.772ZM238.881 54.291V43.433h-32.615V32.575H97.734v10.858H65.119V54.29H32.56v86.922h10.854v-21.717h76.028v-10.858h10.853V97.779h10.853V43.434h21.706v54.346h10.853v10.859h10.853v10.858h76.028v21.717h10.853V54.291h-32.559Zm10.853 54.347h-10.853V65.15h10.853v43.488ZM238.881 249.85h10.853v-21.716h-10.853v21.716Z" fill="#DEDEDE"/><path d="M184.559 141.213v10.858h-10.853v10.858h-10.853v108.638h-21.706V162.929h-10.853v-10.858h-10.853v-10.858H43.413v21.716h10.853v21.717h10.853v21.716h10.853v21.772h10.909v21.716h10.853v10.859h10.853v10.858h10.854v10.858h65.118v-10.858h10.854v-10.858h10.853V249.85h10.908v-21.716h10.854v-21.772h10.853v-21.716h10.853v-21.717h10.853v-21.716h-76.028Zm43.469 43.433h-10.854v32.574h-10.908v21.772h-10.853V217.22h10.853v-32.574h10.908v-21.717h10.854v21.717ZM271.44 32.575V21.716h-32.559v10.859h32.559ZM238.881 249.85h-10.853v10.859h10.853V249.85ZM228.028 260.709h-10.854v10.858h10.854v-10.858Z" fill="#DEDEDE"/><path d="M217.174 271.567h-10.908v10.858h10.908v-10.858ZM238.881 21.716V10.858h-32.615v10.858h32.615ZM206.266 282.425h-10.853v10.859h10.853v-10.859ZM173.706 293.284v10.858h21.707v-10.858h-21.707ZM130.294 304.142V315h43.412v-10.858h-43.412ZM141.147 119.496v21.717h21.706v-21.717h-21.706ZM108.587 293.284v10.858h21.707v-10.858h-21.707ZM206.266 10.858V0H97.734v10.858h108.532ZM108.587 282.425H97.734v10.859h10.853v-10.859ZM97.734 271.567H86.88v10.858h10.853v-10.858ZM86.88 260.709H75.973v10.858h10.909v-10.858ZM97.734 21.716V10.858H65.119v10.858h32.615ZM75.972 249.85H65.12v10.859h10.853V249.85ZM65.12 228.134H54.265v21.716h10.853v-21.716ZM54.266 206.362H43.413v21.772h10.853v-21.772ZM65.12 32.575V21.716H32.56v10.859h32.56ZM43.413 184.646H32.56v21.716h10.853v-21.716ZM32.56 162.929H21.706v21.717H32.56v-21.717ZM32.56 43.433V32.575H10.853v10.858H32.56ZM21.706 141.213H10.853v21.716h10.853v-21.716Z" fill="#DEDEDE"/></svg>