<svg width="121" height="120" fill="none" xmlns="http://www.w3.org/2000/svg"><g clip-path="url(#a)"><path d="M35.39 63.39V14.088h7.035V7.14h70.684v6.808h7.046v49.517h-6.944v21.169h-14.06v-6.901h-7.075v-7.168H44.735c-.751 0-1.498-.045-2.25-.072l.045.053v-7.198h-7.196l.052.041h.004Z" fill="#FF5D01"/><path d="M42.485 70.494v7.127h35.246v14.17h-6.9v7.093h-35.41v7.055h-6.98v6.927H14.219V98.989H7.172v-7.085H.17V42.319H7.1v-6.954h21.173v28.03h7.113l-.052-.042v7.198h7.196l-.045-.053v-.004Zm-7.204 7.318h-6.84v6.838h6.84v-6.838Zm-14.167.045h-6.731v6.778h6.73v-6.778ZM7.21 7.044V0h7.094v7.04l.049-.049H7.157l.052.053Z" fill="#FF5D01"/><path d="M7.205 14.14H.167V7.044h7.042l-.052-.053v7.194l.048-.045ZM113.132 105.86h7.035v7.096h-7.039l.052.053v-7.194l-.048.045Z" fill="#FF5D01"/><path d="M113.128 112.956V120h-7.095v-7.04l-.045.049h7.196l-.052-.053h-.004ZM21.215 28.032c0-2.066-.049-3.99.045-5.905.019-.372.582-1.007.917-1.022 1.975-.098 3.955-.049 6.043-.049v6.976h-7.005ZM85.142 91.953h6.76v6.822l-6.794.465.034.042v-7.33ZM14.304 7.04h6.81v7.096h-6.799l.046.06-.008-7.201-.049.049V7.04ZM14.315 14.136v6.811h-7.11V14.14l-.048.049c2.4 0 4.8.004 7.2.008l-.045-.06h.003Z" fill="#FF5D01"/><path d="M85.105 105.837h-7.11v-7.014c2.403.15 4.773.301 7.143.451l-.034-.037v6.6ZM106.037 105.852v-6.8h7.095v6.812l.048-.049-7.2-.008.06.045h-.003Z" fill="#FF5D01"/><path d="M106.033 112.96h-6.806v-7.111h6.81l-.06-.046c0 2.401.003 4.802.007 7.202l.045-.049.004.004Z" fill="#FF5D01"/><path d="M53.31 42h6.857v20.571H53.31V42ZM60.167 21.429h6.857v13.714h-6.857V21.429ZM87.595 21.429h6.857v13.714h-6.857V21.429ZM87.595 14.571v6.858H67.024V14.57h20.571ZM80.738 35.143h-6.857v-6.857h6.857v6.857ZM94.452 42h6.857v20.571h-6.857V42ZM94.452 55.714v6.857H60.167v-6.857h34.285ZM94.452 35.143V42H60.167v-6.857h34.285Z" fill="#1E1E1E"/></g><defs><clipPath id="a"><path fill="#fff" transform="translate(.167)" d="M0 0h120v120H0z"/></clipPath></defs></svg>