<svg width="72" height="39" viewBox="0 0 72 39" fill="none" xmlns="http://www.w3.org/2000/svg">
<path opacity="0.5" fill-rule="evenodd" clip-rule="evenodd" d="M1.24195 1.42413C2.06492 0.560665 3.19711 0.0594377 4.3895 0.0304317C5.58187 0.00142597 6.7371 0.447007 7.60109 1.26941L35.9852 28.2918L64.3589 1.27935C64.7815 0.866887 65.2812 0.541619 65.8296 0.32215C66.3839 0.100322 66.9768 -0.00898577 67.5737 0.000577438C68.1706 0.0101406 68.7596 0.138386 69.3065 0.377856C69.8534 0.617325 70.3471 0.963241 70.759 1.39548C71.1708 1.82772 71.4925 2.33763 71.7053 2.8955C71.918 3.45337 72.0176 4.04802 71.9981 4.64478C71.9786 5.24152 71.8405 5.82841 71.5918 6.37122C71.3458 6.90823 70.9964 7.39142 70.5637 7.7933L39.0875 37.7596C38.251 38.5559 37.1401 39 35.9852 39C34.8304 39 33.7196 38.556 32.883 37.7597L1.39662 7.78368C0.532833 6.96101 0.0308538 5.82865 0.00182083 4.63604C-0.0272122 3.44342 0.419189 2.28785 1.24195 1.42413ZM69.1948 6.33515C69.4387 6.11051 69.6354 5.83959 69.7735 5.53816C69.9116 5.23674 69.9883 4.91085 69.9992 4.5795C70.01 4.24814 69.9547 3.91795 69.8366 3.60816C69.7184 3.29838 69.5398 3.0152 69.311 2.77514C69.0823 2.53508 68.808 2.34293 68.5043 2.20991C68.2005 2.07688 67.8732 2.00563 67.5416 2.00032C67.21 1.99501 66.8807 2.05573 66.5728 2.17896C66.2649 2.30219 65.9846 2.48545 65.7483 2.71806L35.9852 31.0533L6.22217 2.71806C5.74229 2.26128 5.10057 2.01373 4.43813 2.02984C3.7757 2.04595 3.14678 2.32442 2.6897 2.80399C2.23275 3.28369 1.98511 3.92517 2.00123 4.58736C2.01735 5.24956 2.29591 5.87824 2.77566 6.33515L34.262 36.311C34.7266 36.7533 35.3436 37 35.9852 37C36.6268 37 37.2438 36.7533 37.7085 36.311L69.1948 6.33515Z" fill="#767676"/>
</svg>
