<svg width="34" height="34" fill="none" xmlns="http://www.w3.org/2000/svg"><path fill-rule="evenodd" clip-rule="evenodd" d="M15.355 12.635c-.549 0-1.107.497-1.107 1.233 0 .558.12.76.18.835.071.091.214.204.594.34l4.757 1.66.007.002c.557.198 1.194.51 1.67 1.118.486.623.684 1.4.684 2.292 0 1.941-1.503 3.606-3.48 3.606h-2.973c-2.159 0-3.826-1.815-3.826-3.954a1.186 1.186 0 1 1 2.372 0c0 .93.704 1.582 1.454 1.582h2.973c.554 0 1.107-.487 1.107-1.234 0-.547-.118-.75-.181-.832-.074-.094-.22-.21-.592-.343l-4.757-1.659-.007-.002c-.55-.196-1.19-.502-1.668-1.11-.49-.624-.686-1.403-.686-2.3 0-1.921 1.498-3.606 3.48-3.606h2.972c2.16 0 3.827 1.815 3.827 3.953a1.186 1.186 0 0 1-2.372 0c0-.929-.704-1.581-1.455-1.581h-2.973Z" fill="#000"/><path fill-rule="evenodd" clip-rule="evenodd" d="M17 8.698c.655 0 1.186.53 1.186 1.186v14.232a1.186 1.186 0 0 1-2.372 0V9.884c0-.655.531-1.186 1.186-1.186Z" fill="#000"/><path fill-rule="evenodd" clip-rule="evenodd" d="M17 2.372C8.926 2.372 2.372 8.926 2.372 17S8.926 31.628 17 31.628 31.628 25.074 31.628 17A1.186 1.186 0 0 1 34 17c0 9.384-7.616 17-17 17S0 26.384 0 17 7.616 0 17 0a1.186 1.186 0 0 1 0 2.372ZM25.302 1.186c0-.655.531-1.186 1.186-1.186h6.326C33.469 0 34 .531 34 1.186v6.326a1.186 1.186 0 1 1-2.372 0v-5.14h-5.14a1.186 1.186 0 0 1-1.186-1.186Z" fill="#000"/><path fill-rule="evenodd" clip-rule="evenodd" d="M33.653.347a1.186 1.186 0 0 1 0 1.678l-7.907 7.907a1.186 1.186 0 1 1-1.678-1.678L31.975.347a1.186 1.186 0 0 1 1.678 0Z" fill="#000"/></svg>