<svg width="42" height="42" fill="none" xmlns="http://www.w3.org/2000/svg"><g clip-path="url(#a)"><path d="M38 21c0 9.17-7.611 16.605-17 16.605S4 30.17 4 21c0-9.17 7.611-16.604 17-16.604S38 11.83 38 21Z" fill="#000"/><path fill-rule="evenodd" clip-rule="evenodd" d="M42 21c0 11.328-9.402 20.511-21 20.511S0 32.328 0 21 9.402.488 21 .488 42 9.672 42 21ZM21 37.605c9.389 0 17-7.435 17-16.605 0-9.17-7.611-16.605-17-16.605S4 11.83 4 21c0 9.17 7.611 16.605 17 16.605Z" fill="#F2F2F2"/><path d="M19.895 26.848v-4.782H15v-2.17h4.895V15.14h2.223v4.755H27v2.171h-4.882v4.782h-2.223Z" fill="#fff"/></g><defs><clipPath id="a"><path fill="#fff" d="M0 0h42v42H0z"/></clipPath></defs></svg>