<svg width="150" height="171" fill="none" xmlns="http://www.w3.org/2000/svg"><g clip-path="url(#a)"><path d="m137.167 53.086-12.223-10.22V22.112c0-2.597-3.049-4.016-5.045-2.344l-11.295 9.441-14.125-11.807-9.737 8.139c5.08-4.247 5.08-12.034 0-16.281l-9.737 8.138c5.08-4.247 5.08-12.034 0-16.28L41.406 29.2l-11.29-9.44c-2-1.673-5.05-.254-5.05 2.343v20.755L12.844 53.073a13.749 13.749 0 0 0-4.942 10.553v28.15l7.215-6.03v28.51L42.12 91.682l8.009 6.693L70.04 81.73a7.747 7.747 0 0 1 9.925 0l19.911 16.645 8.009-6.693 27.005 22.574v-28.51l7.215 6.03v-28.15c0-4.074-1.808-7.934-4.942-10.553" fill="#595A5A"/><path d="M107.888 90.57c.259 0 .518.09.727.267l25.144 21.012V85.763c0-.44.254-.84.656-1.023a1.142 1.142 0 0 1 1.21.16l5.348 4.47V63.642c0-3.744-1.652-7.275-4.536-9.686l-12.223-10.219a1.118 1.118 0 0 1-.406-.867V22.12c0-.77-.42-1.423-1.121-1.748a1.893 1.893 0 0 0-2.067.271l-11.295 9.437a1.143 1.143 0 0 1-1.46 0L94.472 18.888l-8.995 7.52s-.01.009-.014.009c-.478.4-1.196.342-1.598-.138a1.126 1.126 0 0 1 .143-1.592 9.476 9.476 0 0 0 3.401-7.276c0-2.499-.977-4.87-2.71-6.635l-8.973 7.498c-.477.4-1.196.343-1.598-.138a1.13 1.13 0 0 1 .138-1.592 9.46 9.46 0 0 0 3.407-7.275c0-2.5-.978-4.87-2.71-6.635L42.127 30.077a1.143 1.143 0 0 1-1.46 0l-11.294-9.442a1.903 1.903 0 0 0-2.063-.27 1.886 1.886 0 0 0-1.12 1.747v20.75c0 .334-.148.65-.407.867L13.56 53.95a12.61 12.61 0 0 0-4.536 9.685v25.727l5.348-4.47a1.138 1.138 0 0 1 1.866.863v26.087l25.144-21.013a1.132 1.132 0 0 1 1.46 0l7.281 6.084L69.307 80.88a8.868 8.868 0 0 1 11.384 0l19.183 16.032 7.281-6.084c.21-.178.469-.267.728-.267m27.005 24.833c-.263 0-.522-.089-.727-.267l-26.278-21.964-7.281 6.084a1.143 1.143 0 0 1-1.46 0L79.23 82.606a6.593 6.593 0 0 0-8.465 0l-19.91 16.64a1.143 1.143 0 0 1-1.46 0l-7.282-6.083-26.277 21.959c-.34.285-.808.343-1.21.161a1.13 1.13 0 0 1-.657-1.023V88.173l-5.348 4.47c-.34.284-.808.342-1.21.16a1.13 1.13 0 0 1-.656-1.023V63.63c0-4.416 1.947-8.579 5.344-11.42l11.817-9.877V22.108c0-1.646.929-3.105 2.429-3.798a4.177 4.177 0 0 1 4.482.587l10.563 8.832L74.275.263a1.143 1.143 0 0 1 1.46 0 11.71 11.71 0 0 1 3.87 11.82l4.407-3.681a1.143 1.143 0 0 1 1.46 0 11.71 11.71 0 0 1 3.87 11.82l4.407-3.682a1.142 1.142 0 0 1 1.46 0l13.393 11.193 10.563-8.827a4.176 4.176 0 0 1 4.482-.587 4.147 4.147 0 0 1 2.429 3.797v20.226l11.817 9.881c3.397 2.842 5.344 7 5.344 11.42v28.15c0 .44-.255.84-.657 1.023-.402.182-.87.124-1.21-.16l-5.348-4.47v26.087c0 .44-.254.841-.656 1.023a1.136 1.136 0 0 1-.478.107M137.245 130.759c-.308 0-.59-.115-.795-.329a1.13 1.13 0 0 1-.339-.8c0-.303.125-.587.339-.801.406-.418 1.17-.431 1.598 0 .045.058.103.111.139.169a.89.89 0 0 1 .102.205.543.543 0 0 1 .067.213.68.68 0 0 1 .023.214c0 .146-.023.293-.081.431a1.431 1.431 0 0 1-.25.374 1.13 1.13 0 0 1-.803.329" fill="#010101"/><path d="M124.94 59.742a1.133 1.133 0 0 1-1.134-1.13V42.867a1.133 1.133 0 0 1 2.268 0v15.747a1.13 1.13 0 0 1-1.134 1.13Z" fill="#010101"/><path d="m73.514 96.97-8.96-10.637-9.259 7.738a8.066 8.066 0 0 1-10.34 0L32.273 83.469c-2.857-2.388-7.214-.364-7.214 3.349v12.078c0 1.957.87 3.811 2.375 5.07l8.009 6.693 10.84 9.063L73.51 96.966l.004.005Z" fill="#F3C417"/><path d="m54.409 83.054 11.227-9.383c2.907-2.428 2.907-6.88 0-9.303L40.69 43.516v33.17c0 7.067 8.285 10.913 13.719 6.373" fill="#fff"/><path d="M41.822 45.939v30.747c0 2.824 1.598 5.318 4.165 6.515a7.177 7.177 0 0 0 7.688-1.01l11.228-9.383a4.931 4.931 0 0 0 1.772-3.79 4.931 4.931 0 0 0-1.772-3.788L41.822 45.939Zm7.24 40.21a9.526 9.526 0 0 1-4.03-.898c-3.38-1.57-5.478-4.852-5.478-8.565v-33.17c0-.441.254-.841.656-1.024.397-.182.87-.124 1.21.16l24.947 20.852a7.178 7.178 0 0 1 2.585 5.52 7.178 7.178 0 0 1-2.585 5.518l-11.228 9.383a9.443 9.443 0 0 1-6.072 2.229" fill="#010101"/><path d="m95.6 83.054-11.228-9.383c-2.906-2.428-2.906-6.88 0-9.303l24.947-20.852v33.17c0 7.067-8.286 10.913-13.719 6.373" fill="#fff"/><path d="m108.182 45.94-23.08 19.29a4.932 4.932 0 0 0-1.773 3.79c0 1.467.647 2.846 1.772 3.789l11.228 9.383c2.17 1.815 5.116 2.201 7.688 1.01 2.571-1.197 4.165-3.692 4.165-6.516V45.94Zm-7.241 40.21a9.42 9.42 0 0 1-6.072-2.228l-11.228-9.383a7.178 7.178 0 0 1-2.584-5.52c0-2.134.942-4.144 2.584-5.518l24.948-20.853a1.14 1.14 0 0 1 1.209-.16c.402.187.657.587.657 1.023v33.171c0 3.713-2.099 6.995-5.478 8.565a9.61 9.61 0 0 1-4.032.899M142.112 92.927c-.161 0-.308-.035-.442-.089a.959.959 0 0 1-.362-.249 1.116 1.116 0 0 1-.33-.791c0-.294.116-.587.33-.8.103-.103.228-.192.362-.25.214-.08.442-.11.656-.057.067.013.147.035.214.057.067.036.139.067.192.103a.692.692 0 0 1 .17.146c.214.214.339.499.339.8 0 .303-.125.579-.339.792a1.12 1.12 0 0 1-.795.338M56.287 72.351a5.551 5.551 0 0 0 1.995-4.265v-9.863L47.1 48.875v19.207c0 4.732 5.55 7.306 9.183 4.265" fill="#010101"/><path d="M48.239 51.302v16.783c0 1.77.964 3.273 2.571 4.025 1.612.752 3.384.516 4.746-.623a4.42 4.42 0 0 0 1.593-3.402v-9.334l-8.91-7.449Zm4.473 23.494c-.965 0-1.938-.21-2.862-.64-2.393-1.112-3.884-3.438-3.884-6.07V48.877c0-.44.255-.84.656-1.023.402-.182.871-.124 1.21.16l11.184 9.348c.258.214.406.53.406.868v9.863a6.676 6.676 0 0 1-2.402 5.132 6.696 6.696 0 0 1-4.304 1.579M93.716 72.351a5.551 5.551 0 0 1-1.996-4.265v-9.863l11.183-9.348v19.207c0 4.732-5.549 7.306-9.183 4.265" fill="#010101"/><path d="M94.444 71.487c1.362 1.139 3.139 1.375 4.75.623 1.612-.747 2.572-2.25 2.572-4.025V51.302l-8.91 7.449v9.334c0 1.317.58 2.553 1.588 3.402Zm2.849 3.309a6.696 6.696 0 0 1-4.304-1.579 6.676 6.676 0 0 1-2.402-5.132v-9.863c0-.334.147-.65.406-.867l11.184-9.348a1.142 1.142 0 0 1 1.21-.16c.401.187.656.587.656 1.023v19.206c0 2.633-1.487 4.96-3.884 6.07-.92.428-1.898.641-2.862.641" fill="#010101"/><path d="M94.896 69.59a1.133 1.133 0 0 1-1.134-1.13v-8.28c0-.628.509-1.13 1.134-1.13.625 0 1.134.507 1.134 1.13v8.28a1.13 1.13 0 0 1-1.134 1.13Z" fill="#fff"/><path d="M88.404 62.127a1.13 1.13 0 0 1-.732-1.997l28.992-24.232a1.14 1.14 0 0 1 1.598.137 1.13 1.13 0 0 1-.138 1.593L89.132 61.86c-.21.178-.473.267-.728.267Z" fill="#010101"/><path d="M50.278 69.59a1.133 1.133 0 0 1-1.134-1.13v-8.28c0-.628.509-1.13 1.134-1.13.625 0 1.134.507 1.134 1.13v8.28a1.13 1.13 0 0 1-1.134 1.13Z" fill="#fff"/><path d="M30.113 19.778c-2-1.672-5.05-.254-5.05 2.343V58.61l1.193-.997a10.731 10.731 0 0 0 3.852-8.231V19.778h.005ZM77.999 5.19l-2.996-4.064-33.599 28.083 3.924 3.287L77.999 5.19ZM94.48 17.407l-9.737 8.138h3.928c2.536 0 4.992-.889 6.933-2.512l2.804-2.344-3.928-3.282Z" fill="#908F8F"/><path d="M20.162 85.758a5.024 5.024 0 0 0-2.915-4.554 5.08 5.08 0 0 0-2.134-.471c-.724 0-1.487.164-2.166.485v-17.58a8.712 8.712 0 0 1 3.139-6.701l8.978-7.507v-6.564L12.84 53.081a13.749 13.749 0 0 0-4.942 10.553v28.15l7.215-6.03v28.51l5.049-4.22V85.749v.01ZM124.94 22.116c0-2.597-3.049-4.015-5.049-2.343l-34.733 29.03h3.929c2.536 0 4.991-.89 6.933-2.512l28.92-24.17v-.005ZM86.234 11.3 84.738 9.27 65.26 25.549h3.929c2.536 0 4.991-.89 6.933-2.512l11.608-9.7-1.496-2.032v-.004Z" fill="#908F8F"/><path d="M65.266 26.68a1.13 1.13 0 0 1-.733-1.998l9.737-8.138a1.14 1.14 0 0 1 1.599.138 1.13 1.13 0 0 1-.139 1.592l-9.737 8.138c-.21.178-.473.267-.727.267ZM42.786 105.659c-.259 0-.518-.089-.727-.267l-10.18-8.507a1.122 1.122 0 0 1-.138-1.592 1.132 1.132 0 0 1 1.599-.138l10.178 8.507c.483.4.545 1.116.139 1.592a1.13 1.13 0 0 1-.87.405Z" fill="#010101"/><path d="m76.492 96.97 8.96-10.638 9.259 7.738a8.066 8.066 0 0 0 10.339 0l12.684-10.602c2.857-2.388 7.214-.364 7.214 3.349v12.078a6.61 6.61 0 0 1-2.375 5.07l-8.009 6.693-10.844 9.063-27.228-22.756v.004Z" fill="#F3C417"/><path d="M107.22 105.659c-.326 0-.647-.138-.87-.405a1.13 1.13 0 0 1 .138-1.592l10.179-8.507a1.136 1.136 0 0 1 1.598.138 1.13 1.13 0 0 1-.138 1.592l-10.179 8.507c-.21.178-.473.267-.728.267ZM61.6 62.126c-.26 0-.519-.09-.729-.267L31.88 37.627a1.122 1.122 0 0 1-.139-1.592 1.136 1.136 0 0 1 1.599-.138L62.33 60.13c.482.4.545 1.116.139 1.592a1.13 1.13 0 0 1-.87.405Z" fill="#010101"/><path d="m78.091 96.832 25.63 21.421 18.121-15.147a5.469 5.469 0 0 0 1.969-4.202V86.826c0-1.294-.701-2.393-1.88-2.94-1.178-.547-2.473-.378-3.468.454l-12.684 10.597a9.18 9.18 0 0 1-11.795 0l-8.388-7.008-7.5 8.903h-.005Zm25.63 24.027c-.259 0-.518-.089-.728-.267L75.765 97.837a1.122 1.122 0 0 1-.138-1.592l8.96-10.638c.192-.231.469-.373.772-.4.3-.027.598.067.826.263l9.26 7.737a6.913 6.913 0 0 0 8.879 0l12.683-10.601a5.497 5.497 0 0 1 5.889-.774c1.968.916 3.192 2.828 3.192 4.99V98.9a7.73 7.73 0 0 1-2.777 5.936l-18.853 15.756c-.21.178-.469.267-.728.267M29.474 83.565c-.469 0-.942.107-1.397.316-1.179.547-1.88 1.645-1.88 2.94v12.078c0 1.627.72 3.157 1.97 4.202l18.12 15.147 25.63-21.422-7.5-8.903-8.389 7.009a9.18 9.18 0 0 1-11.795 0L31.55 84.33a3.234 3.234 0 0 0-2.071-.77m16.813 37.29c-.26 0-.519-.089-.728-.267L26.71 104.827a7.71 7.71 0 0 1-2.777-5.937V86.81c0-2.16 1.223-4.073 3.192-4.989a5.487 5.487 0 0 1 5.888.774l12.684 10.602a6.913 6.913 0 0 0 8.88 0l9.258-7.738c.233-.192.527-.29.826-.263.3.027.576.17.773.4l8.96 10.638a1.13 1.13 0 0 1-.139 1.592l-27.228 22.756c-.21.178-.469.267-.728.267" fill="#010101"/><path d="M70.042 81.751 1.14 139.341l68.046-24.672a17.074 17.074 0 0 1 5.817-1.023V79.95c-1.763 0-3.527.6-4.96 1.801Z" fill="#F3C417"/><path d="M79.967 81.751a7.72 7.72 0 0 0-4.964-1.8v33.695c1.969 0 3.937.342 5.817 1.023l68.046 24.672-68.899-57.59Z" fill="#F99E1C"/><path d="m75.001 129.455-24.309 8.814 24.309 13.982 24.313-13.982-24.313-8.814Z" fill="#C22026"/><path d="m50.692 138.27-19.554 7.088 35.358 20.337a17.07 17.07 0 0 0 8.505 2.272v-15.711l-24.309-13.982v-.004Z" fill="#F27121"/><path d="m99.316 138.27-24.313 13.982v15.711c2.938 0 5.875-.755 8.504-2.272l35.358-20.337-19.554-7.088.005.004Z" fill="#E45625"/><path d="m33.814 145.594 33.25 19.122c4.822 2.776 11.059 2.776 15.876 0l33.25-19.122-16.768-6.079-23.853 13.719c-.353.2-.786.2-1.134 0l-23.853-13.719-16.768 6.079Zm41.188 23.502c-3.179 0-6.317-.835-9.072-2.424l-35.358-20.336a1.128 1.128 0 0 1 .179-2.041l19.554-7.088c.317-.116.665-.085.955.084l23.746 13.657 23.742-13.657c.29-.169.638-.2.955-.084l19.554 7.088a1.129 1.129 0 0 1 .179 2.041l-35.358 20.336a18.23 18.23 0 0 1-9.072 2.424" fill="#010101"/><path d="M69.185 114.669 1.139 139.341l11.152 6.413a17.071 17.071 0 0 0 14.322 1.249l48.39-17.543v-15.81c-1.97 0-3.939.343-5.818 1.023" fill="#F99E1C"/><path d="M80.82 114.669a17.1 17.1 0 0 0-5.817-1.023v15.81L123.392 147a17.072 17.072 0 0 0 14.322-1.25l11.148-6.413-68.047-24.672.005.004Z" fill="#F27121"/><path d="m3.813 139.573 9.045 5.203a15.881 15.881 0 0 0 13.366 1.165l48.39-17.544c.25-.089.526-.089.776 0l48.389 17.544a15.894 15.894 0 0 0 13.367-1.165l9.04-5.199-65.756-23.841a15.995 15.995 0 0 0-10.862 0L3.814 139.573Zm16.973 9.583c-3.143 0-6.268-.818-9.067-2.423L.567 140.32a1.128 1.128 0 0 1 .179-2.041l68.046-24.668a18.248 18.248 0 0 1 12.41 0l68.047 24.668a1.128 1.128 0 0 1 .178 2.041l-11.152 6.413a18.167 18.167 0 0 1-15.277 1.329l-48-17.401-48.002 17.406a18.186 18.186 0 0 1-6.21 1.094" fill="#010101"/><path d="M75.006 112.521c2.125 0 4.214.365 6.205 1.09l61.997 22.475-63.97-53.471a6.594 6.594 0 0 0-8.465 0L6.8 136.086l61.997-22.475a18.087 18.087 0 0 1 6.205-1.09m73.863 27.95c-.129 0-.259-.022-.388-.066L80.43 115.737a15.97 15.97 0 0 0-10.858 0L1.526 140.4a1.134 1.134 0 0 1-1.37-.498 1.125 1.125 0 0 1 .254-1.432l68.9-57.59a8.868 8.868 0 0 1 11.383 0l68.899 57.59c.424.351.531.956.254 1.432a1.144 1.144 0 0 1-.982.565" fill="#010101"/><path d="M75 141.987a1.133 1.133 0 0 1-1.133-1.129V129.46a1.134 1.134 0 0 1 2.268 0v11.398c0 .622-.51 1.129-1.134 1.129ZM68.15 93.27l-8.04 6.719h8.04v-6.72Z" fill="#010101"/><path d="M63.23 98.856h3.786v-3.167l-3.786 3.167Zm4.92 2.259h-8.04c-.478 0-.902-.298-1.067-.743a1.133 1.133 0 0 1 .334-1.254l8.04-6.72c.34-.284.809-.342 1.21-.16.402.187.657.587.657 1.023v6.72a1.13 1.13 0 0 1-1.134 1.129M81.855 93.27l8.04 6.719h-8.04v-6.72Z" fill="#010101"/><path d="M82.994 98.855h3.786l-3.786-3.166v3.166Zm6.902 2.259h-8.04a1.133 1.133 0 0 1-1.134-1.13v-6.719c0-.44.254-.84.656-1.023.397-.182.87-.124 1.21.16l8.04 6.72c.367.302.5.805.335 1.254-.16.449-.59.743-1.067.743M41.822 45.939v30.747c0 2.824 1.598 5.318 4.165 6.515a7.177 7.177 0 0 0 7.688-1.01l11.228-9.383a4.931 4.931 0 0 0 1.772-3.79 4.931 4.931 0 0 0-1.772-3.788L41.822 45.939Zm7.24 40.21a9.526 9.526 0 0 1-4.03-.898c-3.38-1.57-5.478-4.852-5.478-8.565v-33.17c0-.441.254-.841.656-1.024.397-.182.87-.124 1.21.16l24.947 20.852a7.178 7.178 0 0 1 2.585 5.52 7.178 7.178 0 0 1-2.585 5.518l-11.228 9.383a9.443 9.443 0 0 1-6.072 2.229M108.182 45.94l-23.08 19.29a4.932 4.932 0 0 0-1.773 3.79c0 1.467.647 2.846 1.772 3.789l11.228 9.383c2.17 1.815 5.116 2.201 7.688 1.01 2.571-1.197 4.165-3.692 4.165-6.516V45.94Zm-7.241 40.21a9.42 9.42 0 0 1-6.072-2.228l-11.228-9.383a7.178 7.178 0 0 1-2.584-5.52c0-2.134.942-4.144 2.584-5.518l24.948-20.853a1.14 1.14 0 0 1 1.209-.16c.402.187.657.587.657 1.023v33.171c0 3.713-2.099 6.995-5.478 8.565a9.61 9.61 0 0 1-4.032.899" fill="#010101"/><path d="M134.893 115.403c-.264 0-.523-.089-.728-.267l-12.326-10.3a1.122 1.122 0 0 1-.139-1.592 1.138 1.138 0 0 1 1.599-.138l10.46 8.743V85.763c0-.44.254-.84.656-1.023a1.142 1.142 0 0 1 1.21.16l5.348 4.47V63.642c0-3.744-1.652-7.275-4.536-9.686l-12.223-10.219a1.118 1.118 0 0 1-.406-.867V22.12c0-.77-.42-1.423-1.121-1.748a1.893 1.893 0 0 0-2.067.271l-11.295 9.437a1.143 1.143 0 0 1-1.46 0L94.472 18.888l-8.995 7.52s-.01.009-.014.009c-.478.4-1.196.342-1.598-.138a1.126 1.126 0 0 1 .143-1.592 9.476 9.476 0 0 0 3.401-7.276c0-2.499-.977-4.87-2.71-6.635l-8.973 7.498c-.477.4-1.196.343-1.598-.138a1.13 1.13 0 0 1 .138-1.592 9.46 9.46 0 0 0 3.407-7.275c0-2.5-.978-4.87-2.71-6.635L42.127 30.077a1.143 1.143 0 0 1-1.46 0l-11.294-9.442a1.903 1.903 0 0 0-2.063-.27 1.886 1.886 0 0 0-1.12 1.747v20.75c0 .334-.148.65-.407.867L13.56 53.95a12.61 12.61 0 0 0-4.536 9.685v25.727l5.348-4.47a1.138 1.138 0 0 1 1.866.863v26.087l10.46-8.743a1.131 1.131 0 1 1 1.46 1.73l-12.321 10.299c-.34.285-.808.342-1.21.16a1.13 1.13 0 0 1-.657-1.023V88.178l-5.348 4.469c-.34.285-.808.342-1.21.16a1.13 1.13 0 0 1-.656-1.023v-28.15c0-4.416 1.947-8.578 5.344-11.42l11.817-9.877V22.112c0-1.645.929-3.104 2.429-3.798a4.178 4.178 0 0 1 4.482.587l10.563 8.832L74.275.263a1.143 1.143 0 0 1 1.46 0 11.71 11.71 0 0 1 3.87 11.82l4.407-3.681a1.143 1.143 0 0 1 1.46 0 11.71 11.71 0 0 1 3.87 11.82l4.407-3.682a1.142 1.142 0 0 1 1.46 0l13.393 11.193 10.563-8.827a4.176 4.176 0 0 1 4.482-.587 4.147 4.147 0 0 1 2.429 3.797v20.226l11.817 9.881c3.397 2.842 5.344 7 5.344 11.42v28.15c0 .44-.255.84-.657 1.023-.402.182-.87.124-1.21-.16l-5.348-4.47v26.087c0 .44-.254.841-.656 1.023a1.136 1.136 0 0 1-.478.107" fill="#010101"/><path d="M85.164 49.933a1.13 1.13 0 0 1-.733-1.997l23.443-19.594a1.136 1.136 0 0 1 1.598.138 1.13 1.13 0 0 1-.138 1.592L85.891 49.666c-.21.178-.473.267-.727.267ZM25.065 59.742a1.133 1.133 0 0 1-1.134-1.13V42.867a1.133 1.133 0 0 1 2.268 0v15.747a1.13 1.13 0 0 1-1.134 1.13ZM64.84 49.933c-.258 0-.517-.09-.727-.267L40.675 30.072a1.122 1.122 0 0 1-.139-1.592 1.132 1.132 0 0 1 1.599-.138l23.442 19.594c.482.4.545 1.116.139 1.592a1.13 1.13 0 0 1-.87.405" fill="#010101"/></g><defs><clipPath id="a"><path fill="#fff" d="M0 0h150v170.526H0z"/></clipPath></defs></svg>