<svg width="30" height="30" fill="none" xmlns="http://www.w3.org/2000/svg"><g clip-path="url(#a)" fill-rule="evenodd" clip-rule="evenodd" fill="#fff"><path opacity=".98" d="M11.807.908c.393-.043.764.025 1.113.205a1182.16 1182.16 0 0 1 10.137 4.63c.21.176.337.4.38.673.03 1.387.04 2.773.03 4.16a13.372 13.372 0 0 0-3.34-.234c.01-.606 0-1.211-.03-1.816a.812.812 0 0 0-.38-.616 617.596 617.596 0 0 0-7.324-3.34 1.11 1.11 0 0 0-.762.118L4.6 7.91a1.043 1.043 0 0 0-.381.733c-.05 2.11-.03 4.22.058 6.328.54 4.373 2.698 7.664 6.475 9.873a7.48 7.48 0 0 0 1.406.615c.196-.069.391-.118.586-.146.638.93 1.38 1.77 2.227 2.52-.787.451-1.607.842-2.461 1.171-.235.04-.469.04-.703 0-5.419-2-8.905-5.78-10.46-11.338-.193-.83-.33-1.67-.41-2.52a342.91 342.91 0 0 1 0-8.964 1.15 1.15 0 0 1 .792-.674c3.371-1.52 6.73-3.053 10.078-4.6Z"/><path opacity=".986" d="M12.041 6.475c.184.014.36.062.527.146 1.883.883 3.777 1.733 5.684 2.549v1.582c-3.578 1.186-5.834 3.608-6.768 7.266a10.448 10.448 0 0 0 .264 5.156l-.058.117c-3.239-1.864-5.104-4.657-5.596-8.379-.04-1.894-.04-3.789 0-5.683a790.982 790.982 0 0 1 5.947-2.754Z"/><path opacity=".986" d="M20.127 12.158c3.899-.214 6.682 1.426 8.35 4.922 1.19 3.394.535 6.372-1.963 8.936-2.578 2.164-5.449 2.653-8.614 1.465-2.723-1.26-4.315-3.38-4.775-6.358-.26-2.698.57-4.993 2.49-6.885a8.588 8.588 0 0 1 4.512-2.08Zm4.043 5.098c.813.22 1.057.708.732 1.465a196.977 196.977 0 0 0-4.013 4.072c-.371.274-.742.274-1.114 0l-2.548-2.549c-.33-.633-.174-1.101.468-1.406a.942.942 0 0 1 .733.088 83.198 83.198 0 0 0 1.875 1.846 267.214 267.214 0 0 0 3.34-3.311c.173-.094.349-.162.527-.205Z"/></g><defs><clipPath id="a"><path fill="#fff" d="M0 0h30v30H0z"/></clipPath></defs></svg>