<svg width="30" height="30" fill="none" xmlns="http://www.w3.org/2000/svg"><path opacity=".986" fill-rule="evenodd" clip-rule="evenodd" d="M14.3.01c1.199-.038 2.39.036 3.574.223.993.193 1.684.757 2.073 1.69.111 1.194.696 2.056 1.755 2.585.329.127.67.202 1.021.223a93.576 93.576 0 0 1 1.883-.383c1.056.071 1.886.54 2.488 1.404a14.069 14.069 0 0 1 2.361 4.467c.176.934-.037 1.764-.638 2.489-1.332 1.02-1.609 2.274-.83 3.764.213.298.468.553.766.766.63.736.865 1.587.702 2.552a13.448 13.448 0 0 1-3.095 5.265 3.39 3.39 0 0 1-1.69.606 97.026 97.026 0 0 0-1.947-.383c-1.031.053-1.808.52-2.329 1.404a8.744 8.744 0 0 0-.447 1.404c-.345.835-.951 1.377-1.818 1.627a14.503 14.503 0 0 1-5.743 0c-.867-.25-1.473-.792-1.819-1.627-.11-1.194-.695-2.055-1.754-2.585a3.375 3.375 0 0 0-1.021-.223c-.626.134-1.253.262-1.883.383a3.35 3.35 0 0 1-1.755-.606A13.445 13.445 0 0 1 1.06 19.79c-.176-.934.037-1.764.638-2.488 1.332-1.02 1.609-2.275.83-3.765a3.271 3.271 0 0 0-.766-.766c-.635-.735-.87-1.586-.702-2.552a13.618 13.618 0 0 1 3.03-5.2c.72-.552 1.527-.744 2.425-.575 2.259.637 3.61-.204 4.052-2.52.346-.835.952-1.378 1.819-1.627.643-.124 1.281-.22 1.914-.288Zm.894 6.827a8.19 8.19 0 0 1 3.126.67c.645.565.74 1.214.287 1.946a1.68 1.68 0 0 1-1.02.51c-2.494-.9-4.663-.411-6.51 1.468a4.943 4.943 0 0 0-1.212 3c.733-.905 1.52-.97 2.361-.192.386.567.365 1.12-.063 1.659l-2.457 2.457c-1.195.546-1.95.174-2.265-1.117-.798-3.37.084-6.21 2.648-8.519a8.648 8.648 0 0 1 5.105-1.882Zm6.19 4.53c.564-.063 1.021.129 1.371.575 1.28 3.632.504 6.748-2.329 9.348-2.521 1.928-5.265 2.332-8.231 1.212-.585-.478-.723-1.063-.415-1.754.27-.412.653-.646 1.148-.702 2.493.9 4.663.412 6.509-1.468a4.943 4.943 0 0 0 1.212-2.999c-.734.903-1.521.967-2.36.191-.386-.568-.365-1.12.063-1.659l2.457-2.456.574-.287Z" fill="#fff"/></svg>