<svg width="30" height="30" fill="none" xmlns="http://www.w3.org/2000/svg"><g clip-path="url(#a)" fill-rule="evenodd" clip-rule="evenodd" fill="#fff"><path opacity=".988" d="M8.525-.03h3.457c2.06.141 4.052.6 5.977 1.378.82.346 1.533.844 2.139 1.494.523.658.562 1.342.117 2.05a6.214 6.214 0 0 1-2.139 1.612 18.106 18.106 0 0 1-6.152 1.406 21.452 21.452 0 0 1-9.14-1.23A8.46 8.46 0 0 1 .79 5.508a3.338 3.338 0 0 1-.82-1.143v-.82a3.7 3.7 0 0 1 1.64-1.729A13.49 13.49 0 0 1 5.48.41a32.828 32.828 0 0 1 3.046-.44Z"/><path opacity=".983" d="M-.03 7.588A16.817 16.817 0 0 0 7.237 9.96c2.835.303 5.648.166 8.438-.41a13.789 13.789 0 0 0 4.805-1.963c.058.721.078 1.444.058 2.168-1.557-.321-2.407.304-2.549 1.875a2.708 2.708 0 0 1-1.26 1.377c-.425.187-.854.363-1.289.527a1.765 1.765 0 0 0-.585 1.319 26.136 26.136 0 0 1-9.375-.03 13.487 13.487 0 0 1-3.868-1.406 3.7 3.7 0 0 1-1.64-1.728V7.588Z"/><path opacity=".979" d="M29.97 15.264v.996c-.398 4.226-2.351 7.518-5.859 9.873a2.15 2.15 0 0 1-.674.322c-2.45-1.142-4.208-2.959-5.273-5.45a14.038 14.038 0 0 1-1.084-5.741c1.558-.6 2.593-1.695 3.105-3.282a95.246 95.246 0 0 1 6.68 0c.512 1.587 1.547 2.68 3.106 3.282Zm-3.984.175c.56.412 1.077.881 1.553 1.407.039.039.039.078 0 .117l-4.6 4.717c-.442.276-.871.256-1.289-.059l-2.226-2.578a54.8 54.8 0 0 1 1.64-1.377c.45.5.89 1.007 1.319 1.523a323.115 323.115 0 0 0 3.603-3.75Z"/><path opacity=".984" d="M-.03 14.912a15.835 15.835 0 0 0 6.798 2.315 28.58 28.58 0 0 0 8.203-.206 16.734 16.734 0 0 0 1.23 4.805 22.47 22.47 0 0 1-6.006.82 22.303 22.303 0 0 1-6.826-1.084A7.912 7.912 0 0 1 .41 19.776a3.75 3.75 0 0 1-.44-.761v-4.102Z"/><path opacity=".985" d="M-.03 22.236a15.076 15.076 0 0 0 5.333 2.08c3.18.563 6.363.583 9.55.059.782-.144 1.554-.33 2.315-.557l.146.059a12.142 12.142 0 0 0 2.784 3.047.27.27 0 0 1-.059.234 7.912 7.912 0 0 1-2.959 1.787c-1.684.558-3.403.9-5.156 1.026H8.525a19.65 19.65 0 0 1-5.742-1.26 8.462 8.462 0 0 1-1.992-1.172 3.34 3.34 0 0 1-.82-1.143v-4.16Z"/></g><defs><clipPath id="a"><path fill="#fff" d="M0 0h30v30H0z"/></clipPath></defs></svg>