<svg width="30" height="30" fill="none" xmlns="http://www.w3.org/2000/svg"><g clip-path="url(#a)" fill-rule="evenodd" clip-rule="evenodd" fill="#fff"><path opacity=".982" d="M29.97 10.928v.937c-.424 1.19-1.264 1.687-2.519 1.494a2.03 2.03 0 0 1-.82-.41c-4.11-4.41-9.13-6.012-15.059-4.805a15.637 15.637 0 0 0-6.62 3.575l-1.7 1.699c-1.111.68-2.098.533-2.959-.44a5.55 5.55 0 0 1-.322-.703v-.937c.088-.236.195-.47.322-.703C5.32 4.984 11.58 2.787 19.073 4.043c4.211.916 7.737 2.977 10.575 6.182.127.233.235.467.323.703Z"/><path opacity=".981" d="M14.62 10.928c4.015-.097 7.306 1.388 9.872 4.453.664 1.09.556 2.096-.322 3.017-.864.631-1.763.69-2.695.176l-1.758-1.64c-2.433-1.772-5.011-2.007-7.734-.704-.342.2-.674.416-.996.645a43.643 43.643 0 0 0-1.934 1.875c-1.214.833-2.317.706-3.31-.38-.486-.83-.505-1.67-.06-2.52a19.791 19.791 0 0 1 3.253-3.018 12.276 12.276 0 0 1 5.683-1.904Z"/><path opacity=".981" d="M14.443 19.248c2.146-.148 3.504.81 4.073 2.871.207 1.782-.486 3.08-2.08 3.897-1.784.607-3.239.167-4.366-1.319-.928-1.724-.703-3.277.674-4.658a4.232 4.232 0 0 1 1.7-.79Z"/></g><defs><clipPath id="a"><path fill="#fff" d="M0 0h30v30H0z"/></clipPath></defs></svg>