<svg width="30" height="30" fill="none" xmlns="http://www.w3.org/2000/svg"><path opacity=".989" fill-rule="evenodd" clip-rule="evenodd" d="M14.62.012c3.391-.157 5.852 1.269 7.382 4.276.218.516.374 1.05.468 1.603.085 1.78.13 3.562.134 5.346 1.748.634 2.906 1.837 3.474 3.608a18.126 18.126 0 0 1 .2 9.688c-.405 1.693-1.351 2.974-2.84 3.842a14.13 14.13 0 0 1-4.275 1.336 23.73 23.73 0 0 1-8.486-.2 10.93 10.93 0 0 1-4.076-1.67 5.48 5.48 0 0 1-1.837-2.707 18.209 18.209 0 0 1-.334-9.154 7.546 7.546 0 0 1 1.47-3.207 6.861 6.861 0 0 1 2.338-1.536l.067-4.878c.422-2.827 1.948-4.798 4.577-5.913a12.375 12.375 0 0 1 1.737-.434Zm.734 2.873c2.277.15 3.691 1.33 4.243 3.54a45.79 45.79 0 0 1 .1 3.943 23.005 23.005 0 0 0-8.552 0 45.79 45.79 0 0 1 .1-3.942c.54-2.155 1.91-3.335 4.11-3.541Zm-1.67 14.298c1.158-.011 2.316 0 3.474.034.9.339 1.222.973.969 1.904-.277.499-.7.789-1.27.868l-.066 1.67c-.394 1.083-1.118 1.383-2.172.903a1.765 1.765 0 0 1-.568-.902l-.067-1.67c-1.078-.22-1.501-.866-1.27-1.938.212-.424.535-.713.97-.869Z" fill="#fff"/></svg>