<svg width="30" height="30" fill="none" xmlns="http://www.w3.org/2000/svg"><g clip-path="url(#a)"><path opacity=".993" fill-rule="evenodd" clip-rule="evenodd" d="M19.248-.03h2.11c4.118.633 6.862 2.918 8.232 6.856.166.586.293 1.172.38 1.758v2.11c-.422 2.988-1.867 5.342-4.335 7.06-2.588 1.584-5.332 1.926-8.233 1.025l-2.314 2.315-.234.117a32 32 0 0 1-1.934.03c.026.707-.004 1.41-.088 2.109-.134.173-.3.3-.498.38a8.946 8.946 0 0 1-1.7-.087 325.17 325.17 0 0 1-.204 1.933.925.925 0 0 1-.733.674c-.607.06-1.213.13-1.816.205l-.059.147a5.94 5.94 0 0 1 .088 1.61 15.161 15.161 0 0 1-1.787 1.759H.498a1.697 1.697 0 0 0-.293-.205 2.08 2.08 0 0 0-.234-.323v-5.625a1003.08 1003.08 0 0 1 11.133-11.22c-.994-3.358-.418-6.415 1.728-9.17 1.7-1.959 3.839-3.111 6.416-3.457Zm3.281 4.571c1.711.041 2.668.91 2.871 2.607-.166 1.573-1.035 2.442-2.607 2.608-1.572-.166-2.441-1.035-2.607-2.608.138-1.456.92-2.325 2.343-2.607Z" fill="#fff"/></g><defs><clipPath id="a"><path fill="#fff" d="M0 0h30v30H0z"/></clipPath></defs></svg>